# xmcd CD database file
#
# Track frame offsets:
#	150
#	14387
#	31369
#	46129
#	56761
#	72849
#	87478
#	102998
#	117731
#	131039
#	144788
#	159605
#	174704
#	196864
#	211720
#	229043
#	244383
#	259509
#	277580
#	293919
#	302626
#	317624
#
# Disc length: 4342 seconds
#
# Revision: 0
# Processed by: cddbd v1.5PL3 Copyright (c) Steve Scherf et al.
# Submitted via: CDex 1.50
#
DISCID=3710f416
DTITLE=John Williams - Long Ride Home
DYEAR=2004
DGENRE=Blues
TTITLE0=Hand Picked
TTITLE1=Afternoon in the Sun
TTITLE2=Southern Flyer
TTITLE3=Red Georgia Clay
TTITLE4=Anything at All
TTITLE5=Nothing Lost
TTITLE6=Off the Road
TTITLE7=Always On Time
TTITLE8=She Walks
TTITLE9=Admit One
TTITLE10=Coast Highway
TTITLE11=Lake County
TTITLE12=Long Ride Home
TTITLE13=Rush Hour
TTITLE14=Long Walk
TTITLE15=Second Half
TTITLE16=Almond Joy
TTITLE17=Dog Don't Hunt
TTITLE18=Halfway Home
TTITLE19=Wayside Park
TTITLE20=Sun Break (Bonus Track from Dusty Porch)
TTITLE21=Landfall (Bonus Track from Quiet Guitar)
EXTD=YEAR: 2004
EXTT0=
EXTT1=
EXTT2=
EXTT3=
EXTT4=
EXTT5=
EXTT6=
EXTT7=
EXTT8=
EXTT9=
EXTT10=
EXTT11=
EXTT12=
EXTT13=
EXTT14=
EXTT15=
EXTT16=
EXTT17=
EXTT18=
EXTT19=
EXTT20=
EXTT21=
PLAYORDER=
